<svg xmlns="http://www.w3.org/2000/svg" viewBox="0 0 960 600">
<path id="WA" d="M77,72 L210,70 L216,80 L218,116 L155,118 L153,132 L77,132Z"/>
<path id="OR" d="M77,132 L153,132 L155,118 L218,116 L228,166 L188,218 L77,218Z"/>
<path id="CA" d="M77,218 L188,218 L218,255 L205,355 L165,458 L88,455 L77,388Z"/>
<path id="NV" d="M188,218 L260,175 L283,258 L258,352 L205,355 L218,255Z"/>
<path id="AZ" d="M175,352 L258,352 L300,352 L300,468 L175,468Z"/>
<path id="UT" d="M222,258 L300,258 L300,352 L258,352 L222,352Z"/>
<path id="ID" d="M218,72 L285,72 L298,148 L272,208 L228,208 L225,166 L218,116Z"/>
<path id="MT" d="M218,72 L430,68 L430,162 L298,162 L298,148 L285,72Z"/>
<path id="WY" d="M285,162 L416,162 L416,258 L285,258 L272,208 L298,162Z"/>
<path id="CO" d="M300,258 L416,258 L416,358 L300,358Z"/>
<path id="NM" d="M300,352 L377,352 L377,468 L300,468Z"/>
<path id="ND" d="M430,68 L545,65 L548,148 L430,148Z"/>
<path id="SD" d="M430,148 L548,148 L550,240 L430,240Z"/>
<path id="NE" d="M430,240 L550,240 L552,305 L430,305Z"/>
<path id="KS" d="M430,305 L552,305 L552,365 L430,365Z"/>
<path id="MN" d="M545,65 L600,65 L605,90 L615,108 L608,192 L545,192 L548,148Z"/>
<path id="IA" d="M548,192 L608,192 L612,258 L548,258 L550,240Z"/>
<path id="MO" d="M548,258 L612,258 L618,345 L600,362 L545,365 L548,305Z"/>
<path id="OK" d="M430,365 L552,365 L552,430 L480,430 L480,415 L430,415Z"/>
<path id="AR" d="M548,365 L618,365 L620,430 L548,430Z"/>
<path id="TX" d="M377,352 L416,352 L416,365 L480,365 L480,415 L552,415 L552,468 L480,540 L430,543 L377,468Z"/>
<path id="LA" d="M548,430 L620,430 L622,505 L600,520 L548,520Z"/>
<path id="MS" d="M600,430 L648,430 L648,528 L620,535 L600,520Z"/>
<path id="AL" d="M648,430 L700,428 L700,535 L650,538 L648,528Z"/>
<path id="TN" d="M600,398 L782,392 L785,448 L600,452Z"/>
<path id="KY" d="M625,338 L782,332 L782,392 L600,398 L612,362 L625,345Z"/>
<path id="WI" d="M608,100 L668,98 L678,108 L680,208 L608,208 L608,192Z"/>
<path id="MI" d="M668,98 L718,82 L750,88 L760,130 L730,148 L695,138 L680,168 L680,208 L648,208 L640,178 L668,108Z"/>
<path id="IL" d="M608,208 L648,208 L650,338 L625,345 L612,338 L612,258Z"/>
<path id="IN" d="M648,208 L700,205 L700,335 L650,338 L648,208Z"/>
<path id="OH" d="M700,178 L760,175 L775,205 L780,320 L700,328 L700,205Z"/>
<path id="GA" d="M700,452 L785,448 L790,510 L760,542 L700,542 L700,452Z"/>
<path id="SC" d="M740,445 L825,415 L830,508 L790,510 L740,510Z"/>
<path id="NC" d="M730,388 L880,380 L882,440 L740,448 L730,445Z"/>
<path id="VA" d="M735,318 L870,308 L875,385 L735,390Z"/>
<path id="WV" d="M735,258 L780,255 L782,332 L760,340 L735,320Z"/>
<path id="PA" d="M735,178 L840,172 L845,258 L735,262 L735,178Z"/>
<path id="NY" d="M738,92 L875,90 L878,178 L800,185 L770,195 L738,178Z"/>
<path id="VT" d="M838,90 L858,88 L860,158 L838,158Z"/>
<path id="NH" d="M858,80 L882,82 L885,155 L860,158 L858,88Z"/>
<path id="ME" d="M858,60 L940,58 L942,155 L885,158 L882,82Z"/>
<path id="MA" d="M840,158 L910,155 L912,195 L878,198 L840,192Z"/>
<path id="RI" d="M878,195 L905,195 L905,222 L878,222Z"/>
<path id="CT" d="M848,192 L878,192 L878,222 L848,222Z"/>
<path id="NJ" d="M842,192 L878,190 L878,255 L842,255Z"/>
<path id="DE" d="M842,255 L868,253 L868,292 L842,290Z"/>
<path id="MD" d="M790,258 L842,255 L842,292 L820,300 L790,285Z"/>
<path id="DC" d="M808,295 L820,295 L820,308 L808,308Z"/>
<path id="FL" d="M700,542 L760,542 L790,510 L830,510 L840,530 L800,560 L755,595 L720,600 L700,580 L698,556Z"/>
<!-- Alaska inset -->
<path id="AK" d="M30,490 L120,488 L148,505 L155,530 L130,548 L95,558 L60,548 L35,525Z"/>
<!-- Hawaii inset -->
<path id="HI" d="M210,540 L230,535 L240,542 L235,555 L215,558Z M248,532 L265,530 L268,540 L252,545Z M272,528 L288,526 L290,535 L274,538Z"/>
</svg>
